<?xml version="1.0" standalone="no"?>
<!DOCTYPE svg PUBLIC "-//W3C//DTD SVG 20010904//EN"
 "http://www.w3.org/TR/2001/REC-SVG-20010904/DTD/svg10.dtd">
<svg version="1.0" xmlns="http://www.w3.org/2000/svg"
 width="512.000000pt" height="512.000000pt" viewBox="0 0 512.000000 512.000000"
 preserveAspectRatio="xMidYMid meet">
<metadata>
Created by potrace 1.14, written by Peter Selinger 2001-2017
</metadata>
<g transform="translate(0.000000,512.000000) scale(0.100000,-0.100000)"
fill="#000000" stroke="none">
<path d="M2378 5055 c-2 -2 -41 -6 -87 -9 -47 -4 -87 -9 -91 -11 -3 -2 -26 -6
-50 -10 -120 -18 -337 -72 -415 -105 -11 -4 -36 -14 -55 -20 -111 -40 -328
-147 -434 -213 -293 -185 -567 -447 -754 -723 -193 -284 -341 -648 -392 -964
-7 -41 -14 -84 -16 -95 -25 -132 -25 -654 0 -694 2 -3 7 -29 10 -57 3 -28 8
-57 10 -65 3 -8 7 -30 10 -49 18 -124 128 -436 214 -605 81 -160 223 -373 332
-499 43 -50 224 -232 265 -266 422 -354 879 -548 1415 -600 130 -12 450 -4
569 14 552 86 1027 323 1406 701 418 417 670 939 732 1520 15 141 9 456 -12
605 -11 82 -39 220 -56 280 -7 25 -13 47 -14 50 -54 193 -143 402 -248 580
-47 81 -166 256 -190 283 -7 6 -25 30 -41 52 -53 71 -299 308 -396 381 -210
159 -453 294 -650 364 -19 6 -44 16 -55 20 -62 26 -267 82 -350 95 -22 4 -52
9 -66 11 -110 19 -270 32 -416 32 -95 0 -173 -2 -175 -3z"/>
</g>
</svg>
